Coordinates
version=1
nRows=7
nColumns=63
inDegrees=yes

Units are S.I. units (second, meters, Newtons, ...)
If the header above contains a line with 'inDegrees', this indicates whether rotational values are in degrees (yes) or radians (no).

endheader
time	pelvis_tilt	pelvis_list	pelvis_rotation	pelvis_tx	pelvis_ty	pelvis_tz	hip_flexion_r	hip_adduction_r	hip_rotation_r	knee_angle_r	knee_angle_r_beta	ankle_angle_r	subtalar_angle_r	mtp_angle_r	hip_flexion_l	hip_adduction_l	hip_rotation_l	knee_angle_l	knee_angle_l_beta	ankle_angle_l	subtalar_angle_l	mtp_angle_l	L5_S1_Flex_Ext	L5_S1_Lat_Bending	L5_S1_axial_rotation	L4_L5_Flex_Ext	L4_L5_Lat_Bending	L4_L5_axial_rotation	L3_L4_Flex_Ext	L3_L4_Lat_Bending	L3_L4_axial_rotation	L2_L3_Flex_Ext	L2_L3_Lat_Bending	L2_L3_axial_rotation	L1_L2_Flex_Ext	L1_L2_Lat_Bending	L1_L2_axial_rotation	L1_T12_Flex_Ext	L1_T12_Lat_Bending	L1_T12_axial_rotation	Abs_r3	Abs_r2	Abs_r1	Abs_t1	Abs_t2	neck_flexion	neck_bending	neck_rotation	arm_flex_r	arm_add_r	arm_rot_r	elbow_flex_r	pro_sup_r	wrist_flex_r	wrist_dev_r	arm_flex_l	arm_add_l	arm_rot_l	elbow_flex_l	pro_sup_l	wrist_flex_l	wrist_dev_l
      0.50000000	     -4.68647671	     -3.27424106	     87.06447356	      0.21388717	      0.85813199	      0.53329554	      5.42737683	     -5.62702244	    -11.82057773	     14.72664523	      0.25702845	     42.79660186	     14.90397370	      0.00000000	      5.24507127	      5.06250096	     16.12805081	      5.35418471	      0.09344815	     36.21077533	    -17.79043044	      0.00000000	      0.25382028	     -0.55703940	      0.80426335	      0.47136965	     -0.74086241	      0.85452981	      0.41700134	     -1.35438560	      0.85452981	      0.29009120	     -1.35438560	      0.70373043	      0.23569752	     -1.13591475	      0.65346397	      0.14503291	     -0.86285403	      0.60319751	      1.81301290	     -6.30134113	      4.47307145	      0.00000000	      0.00000000	     18.68833045	      1.05716069	     -4.19397510	     15.73314138	     -7.79065305	     60.26517691	     49.01412949	     87.78356488	      5.59549295	     -0.10532811	     21.91586959	    -14.07761994	     70.40673429	     50.23765799	     64.78569266	     -0.58802618	      1.35496256
      0.51724138	     -4.71346125	     -3.31009259	     86.94632968	      0.21417568	      0.85798057	      0.53342289	      5.57804595	     -5.68034266	    -12.08485062	     14.83018464	      0.25883555	     43.08460577	     15.17787850	      0.00000000	      5.20607683	      5.05927083	     16.09806894	      5.23964430	      0.09144904	     36.17979931	    -17.89213578	      0.00000000	      0.25698748	     -0.55723881	      0.71063436	      0.47725146	     -0.74112762	      0.75504901	      0.42220474	     -1.35487045	      0.75504901	      0.29371100	     -1.35487045	      0.62180507	      0.23863858	     -1.13632139	      0.57739042	      0.14684265	     -0.86316292	      0.53297577	      1.83563590	     -6.30359690	      3.95233515	      0.00000000	      0.00000000	     18.75140469	      0.95117213	     -3.98296346	     15.83864888	     -7.64984765	     60.18514087	     48.72333757	     87.95838116	      6.43326274	      0.28874985	     20.85950740	    -14.31525887	     68.52595370	     48.83585219	     59.32452009	      3.56987480	     -0.53066367
      0.53448276	     -4.75475472	     -3.31268537	     86.88745068	      0.21439810	      0.85771416	      0.53370416	      5.72790202	     -5.75864712	    -12.26392733	     14.96714008	      0.26122587	     43.40551536	     15.40038207	      0.00000000	      5.13803037	      5.06654733	     16.14966233	      5.09136795	      0.08886113	     36.19004212	    -17.89453427	      0.00000000	      0.25061308	     -0.56458841	      0.60384007	      0.46541355	     -0.75090258	      0.64158008	      0.41173223	     -1.37274025	      0.64158008	      0.28642569	     -1.37274025	      0.52836006	      0.23271931	     -1.15130868	      0.49062006	      0.14320031	     -0.87454744	      0.45288005	      1.79010418	     -6.38673696	      3.35837733	      0.00000000	      0.00000000	     18.85978947	      0.60691248	     -4.44972020	     16.23671915	     -7.65591695	     60.37235246	     48.28167416	     88.23953096	      6.12043497	      1.11808768	     19.94872139	    -14.67959515	     67.06882008	     47.69059476	     56.32194501	      6.45957710	     -0.77711450
      0.55172414	     -4.67147746	     -3.28704804	     87.01811040	      0.21428090	      0.85741626	      0.53420895	      5.84793094	     -5.72095145	    -12.60372099	     15.12838232	      0.26404008	     43.76173423	     15.55108748	      0.00000000	      5.11438531	      4.96987546	     16.38745471	      5.04015873	      0.08796736	     36.21648965	    -17.92240405	      0.00000000	      0.23967675	     -0.55556183	      0.48177136	      0.44510369	     -0.73889724	      0.51188207	      0.39376493	     -1.35079304	      0.51188207	      0.27392656	     -1.35079304	      0.42154994	      0.22256383	     -1.13290169	      0.39143923	      0.13695129	     -0.86056528	      0.36132852	      1.71198705	     -6.28462657	      2.67946775	      0.00000000	      0.00000000	     18.80142091	      0.34304810	     -4.74567614	     16.99430735	     -7.93018690	     60.99691193	     47.59484460	     88.52726432	      4.22879456	      1.79735902	     19.46984800	    -15.06875492	     66.48773505	     46.51361076	     55.15653167	      8.57688319	      0.63514563
      0.56896552	     -4.53256390	     -3.22054647	     86.98781807	      0.21426441	      0.85723681	      0.53470174	      6.00950518	     -5.61443945	    -12.57122491	     15.35913295	      0.26806744	     44.10535576	     15.59184741	      0.00000000	      5.06400275	      4.80079575	     16.47333724	      5.01052652	      0.08745018	     36.25446563	    -17.87348650	      0.00000000	      0.22589979	     -0.53825077	      0.40024006	      0.41951851	     -0.71587352	      0.42525507	      0.37113077	     -1.30870292	      0.42525507	      0.25818087	     -1.30870292	      0.35021006	      0.20977055	     -1.09760097	      0.32519505	      0.12907914	     -0.83375044	      0.30018005	      1.61357964	     -6.08880035	      2.22601516	      0.00000000	      0.00000000	     18.71494040	      0.20686369	     -4.91321536	     17.65066378	     -8.19851942	     60.57740966	     46.38461505	     88.78344665	      2.95492899	      2.20983526	     18.95913738	    -15.60360927	     66.48231195	     45.38597213	     55.31413545	      8.39996754	      1.20282822
      0.58620690	     -4.36919995	     -3.20131400	     87.35544936	      0.21340509	      0.85699366	      0.53505625	      6.15837464	     -5.55579415	    -13.04822264	     15.62978574	      0.27279122	     44.48640455	     15.63659328	      0.00000000	      5.11189004	      4.66754953	     16.99997941	      5.04138232	      0.08798872	     36.26331803	    -17.87777422	      0.00000000	      0.21756938	     -0.52100180	      0.22071243	      0.40404810	     -0.69293239	      0.23450696	      0.35744474	     -1.26676378	      0.23450696	      0.24866005	     -1.26676378	      0.19312338	      0.20203493	     -1.06242687	      0.17932885	      0.12431915	     -0.80703179	      0.16553432	      1.55407636	     -5.89367656	      1.22753632	      0.00000000	      0.00000000	     18.43499288	      0.01640372	     -5.29053438	     18.64973422	     -8.90896504	     62.41519506	     45.50357465	     88.86483685	     -4.19070212	      0.98105303	     17.11566475	    -16.19109186	     62.47386239	     44.72679700	     60.38010920	      8.04926497	      3.79579147
      0.60344828	     -4.21516608	     -3.08377885	     87.49903551	      0.21279308	      0.85683161	      0.53535935	      6.29275169	     -5.47685846	    -13.00451312	     15.98218050	      0.27894167	     44.83179955	     15.39076235	      0.00000000	      5.03716117	      4.53286077	     17.27476417	      5.02774956	      0.08775078	     36.28047478	    -17.84727620	      0.00000000	      0.19145132	     -0.50042888	      0.19269649	      0.35554425	     -0.66557040	      0.20474002	      0.31453538	     -1.21674277	      0.20474002	      0.21880972	     -1.21674277	      0.16860943	      0.17778170	     -1.02047456	      0.15656590	      0.10939529	     -0.77516433	      0.14452236	      1.36751765	     -5.66095153	      1.07172005	      0.00000000	      0.00000000	     18.21541280	     -0.23661668	     -5.57275707	     18.36496253	     -9.64867557	     60.47392900	     44.60950062	     88.85136588	     -8.90769061	      0.13918884	     16.32631296	    -16.77542456	     62.04641523	     43.61789991	     62.26281283	      4.89421568	      3.98078407
